<?xml version="1.0" encoding="iso-8859-1"?>
<!-- Generator: Adobe Illustrator 18.0.0, SVG Export Plug-In . SVG Version: 6.00 Build 0)  -->
<!DOCTYPE svg PUBLIC "-//W3C//DTD SVG 1.1//EN" "http://www.w3.org/Graphics/SVG/1.1/DTD/svg11.dtd">
<svg version="1.1" id="Capa_1" xmlns="http://www.w3.org/2000/svg" xmlns:xlink="http://www.w3.org/1999/xlink" x="0px" y="0px"
	 viewBox="0 0 397.426 397.426" style="enable-background:new 0 0 397.426 397.426;" xml:space="preserve">
<g>
	<path d="M24.357,127.79c1.115,3.036,3.985,4.918,7.042,4.917c0.858,0,1.731-0.148,2.584-0.461l54.447-19.988
		c2.952-1.084,4.915-3.895,4.915-7.041s-1.963-5.957-4.915-7.041L33.983,78.188c-3.889-1.429-8.197,0.567-9.626,4.456
		c-1.427,3.889,0.568,8.198,4.456,9.625l35.27,12.948l-35.27,12.948C24.925,119.592,22.93,123.902,24.357,127.79z"/>
	<path d="M308.997,112.258l54.447,19.988c0.853,0.313,1.726,0.461,2.584,0.461c3.056,0,5.927-1.882,7.042-4.917
		c1.427-3.888-0.568-8.198-4.456-9.625l-35.27-12.948l35.27-12.948c3.888-1.428,5.883-5.737,4.456-9.625
		c-1.429-3.887-5.735-5.884-9.626-4.456l-54.447,19.989c-2.952,1.084-4.915,3.895-4.915,7.041S306.044,111.174,308.997,112.258z"/>
	<path d="M386.439,375.648c-3.303-2.496-8.008-1.84-10.505,1.465c-2.55,3.376-6.438,5.313-10.669,5.313
		c-4.231,0-8.121-1.937-10.671-5.313c-5.411-7.164-13.663-11.273-22.641-11.273c-8.977,0-17.229,4.109-22.64,11.273
		c-2.55,3.376-6.438,5.313-10.67,5.313s-8.12-1.937-10.67-5.313c-1.67-2.211-3.612-4.128-5.761-5.726V176.7
		c13.557-1.987,24-13.689,24-27.789v-19.41c0-4.142-3.357-7.5-7.5-7.5H269.72V90.113h6.554c4.143,0,7.5-3.358,7.5-7.5
		s-3.357-7.5-7.5-7.5h-7.284c-4.571-31.947-30.474-57.101-62.776-60.508V7.5c0-4.142-3.357-7.5-7.5-7.5s-7.5,3.358-7.5,7.5v7.105
		c-32.303,3.407-58.207,28.561-62.777,60.508h-7.284c-4.143,0-7.5,3.358-7.5,7.5s3.357,7.5,7.5,7.5h6.554v31.888H98.713
		c-4.143,0-7.5,3.358-7.5,7.5v19.41c0,14.1,10.443,25.802,24,27.789v194.686c-2.149,1.598-4.092,3.516-5.762,5.727
		c-2.55,3.376-6.438,5.313-10.67,5.313c-4.23,0-8.119-1.937-10.669-5.313c-5.411-7.164-13.663-11.273-22.641-11.273
		s-17.229,4.109-22.641,11.273c-2.55,3.376-6.438,5.313-10.67,5.313s-8.12-1.937-10.67-5.313c-2.496-3.306-7.2-3.961-10.505-1.465
		c-3.306,2.496-3.962,7.199-1.466,10.505c5.411,7.164,13.663,11.273,22.641,11.273s17.229-4.109,22.641-11.273
		c2.55-3.376,6.438-5.313,10.67-5.313s8.12,1.937,10.67,5.313c5.411,7.164,13.663,11.273,22.64,11.273
		c8.978,0,17.229-4.109,22.64-11.272c1.272-1.684,2.876-3.008,4.69-3.914c0.014-0.007,0.028-0.013,0.042-0.02
		c1.814-0.898,3.834-1.379,5.94-1.379c4.23,0,8.119,1.937,10.669,5.313c5.411,7.164,13.663,11.273,22.641,11.273
		s17.229-4.109,22.641-11.273c2.55-3.376,6.438-5.313,10.669-5.313c4.231,0,8.121,1.937,10.671,5.313
		c5.411,7.164,13.663,11.273,22.641,11.273c8.977,0,17.229-4.109,22.64-11.273c2.55-3.376,6.438-5.313,10.67-5.313
		c2.107,0,4.13,0.482,5.944,1.381c0.011,0.006,0.023,0.011,0.035,0.017c1.814,0.906,3.42,2.231,4.691,3.915
		c5.411,7.164,13.663,11.273,22.641,11.273s17.229-4.109,22.641-11.273c2.55-3.376,6.438-5.313,10.669-5.313
		c4.231,0,8.12,1.937,10.671,5.313c5.411,7.164,13.663,11.272,22.641,11.272c8.978,0,17.229-4.109,22.64-11.273
		C390.401,382.847,389.745,378.144,386.439,375.648z M140.713,137.001h28.666v25h-28.666V137.001z M256.713,137.001v25h-28.667v-25
		H256.713z M267.213,221.648l-137,35.974v-29.544l137-35.974V221.648z M130.213,273.129l137-35.974V266.7l-137,35.974V273.129z
		 M213.046,137.001v25h-28.667v-25H213.046z M202.912,122.001h-8.397v-9.039c0-2.315,1.884-4.199,4.199-4.199
		c2.314,0,4.198,1.883,4.198,4.199V122.001z M265.672,177.001L130.213,212.57v-35.569H265.672z M130.213,318.182l137-35.974v29.544
		l-137,35.974V318.182z M291.213,148.911c0,7.218-5.872,13.09-13.09,13.09h-6.41v-25h19.5V148.911z M252.197,122.001v-9.039
		c0-1.719,1.041-3.196,2.523-3.845v12.884H252.197z M198.713,29.206c27.433,0,50.306,19.831,55.077,45.907H143.635
		C148.406,49.037,171.28,29.206,198.713,29.206z M254.72,90.113v3.736c-9.804,0.853-17.523,9.093-17.523,19.114v9.039h-19.285
		v-9.039c0-10.586-8.612-19.199-19.198-19.199c-10.587,0-19.199,8.612-19.199,19.199v9.039h-19.285v-9.039
		c0-10.021-7.72-18.261-17.523-19.114v-3.736H254.72z M142.706,109.117c1.482,0.649,2.523,2.126,2.523,3.845v9.039h-2.523V109.117z
		 M106.213,148.911v-11.91h19.5v25h-6.41C112.085,162.001,106.213,156.129,106.213,148.911z M242.693,377.113
		c-2.55,3.376-6.438,5.313-10.669,5.313c-4.231,0-8.12-1.937-10.671-5.313c-5.411-7.164-13.663-11.272-22.641-11.272
		c-8.978,0-17.229,4.109-22.64,11.273c-2.55,3.376-6.438,5.313-10.67,5.313s-8.12-1.937-10.67-5.313
		c-5.41-7.164-13.662-11.272-22.64-11.273c0,0,0,0-0.001,0c-0.63,0-1.256,0.025-1.879,0.066v-2.672l137-35.974v38.645
		c-0.623-0.04-1.249-0.066-1.88-0.066C256.356,365.84,248.104,369.949,242.693,377.113z"/>
</g>
<g>
</g>
<g>
</g>
<g>
</g>
<g>
</g>
<g>
</g>
<g>
</g>
<g>
</g>
<g>
</g>
<g>
</g>
<g>
</g>
<g>
</g>
<g>
</g>
<g>
</g>
<g>
</g>
<g>
</g>
</svg>
